<svg width="390" height="306" viewBox="0 0 390 306" fill="none" xmlns="http://www.w3.org/2000/svg">
<path d="M278.357 123.521H111.344C109.43 123.521 107.864 125.086 107.864 127V301.843C107.864 303.756 109.43 305.322 111.344 305.322H278.357C280.271 305.322 281.837 303.756 281.837 301.843V127C281.837 125.086 280.271 123.521 278.357 123.521ZM135.7 151.356H254.001V202.243H135.7V151.356ZM254.001 277.486H135.7V226.599H254.001V277.486Z" fill="#004AAD"/>
<path d="M156.577 254.87C156.577 258.561 158.043 262.101 160.654 264.711C163.264 267.321 166.804 268.788 170.495 268.788C174.186 268.788 177.726 267.321 180.336 264.711C182.946 262.101 184.413 258.561 184.413 254.87C184.413 251.179 182.946 247.639 180.336 245.029C177.726 242.418 174.186 240.952 170.495 240.952C166.804 240.952 163.264 242.418 160.654 245.029C158.043 247.639 156.577 251.179 156.577 254.87ZM156.577 177.452C156.577 181.143 158.043 184.683 160.654 187.294C163.264 189.904 166.804 191.37 170.495 191.37C174.186 191.37 177.726 189.904 180.336 187.294C182.946 184.683 184.413 181.143 184.413 177.452C184.413 173.761 182.946 170.221 180.336 167.611C177.726 165.001 174.186 163.534 170.495 163.534C166.804 163.534 163.264 165.001 160.654 167.611C158.043 170.221 156.577 173.761 156.577 177.452Z" fill="#004AAD"/>
<path d="M325.069 89.9873C305.149 37.4041 254.393 0 194.938 0C135.482 0 84.726 37.3606 64.8061 89.9438C27.3585 99.8168 -0.216189 134.046 0.00127728 174.669C0.262236 220.075 35.4917 257.001 79.8547 260.959C81.8989 261.133 83.6386 259.524 83.6386 257.48V231.21C83.6386 229.47 82.3338 227.991 80.5941 227.774C68.851 226.295 57.7602 221.163 49.2355 212.769C38.7972 202.548 33.0561 188.804 33.0561 174.234C33.0561 162.056 37.014 150.573 44.4513 141.005C51.7146 131.697 61.9355 124.956 73.2003 121.998L89.6842 117.649L95.7297 101.687C99.4701 91.7706 104.689 82.463 111.257 74.0688C117.737 65.7182 125.436 58.4113 134.047 52.3223C151.923 39.7527 172.974 33.0983 194.938 33.0983C216.902 33.0983 237.952 39.7527 255.828 52.3658C264.483 58.4548 272.138 65.7617 278.618 74.1123C285.186 82.5065 290.405 91.8141 294.146 101.73L300.148 117.649L316.588 121.998C340.161 128.261 356.645 149.703 356.645 174.19C356.645 188.804 350.904 202.504 340.466 212.725C331.985 221.076 320.937 226.251 309.194 227.73C307.454 227.948 306.193 229.426 306.193 231.166V257.48C306.193 259.524 307.976 261.133 310.021 260.959C354.253 256.958 389.396 220.075 389.7 174.756C389.961 134.133 362.43 99.9038 325.069 89.9873Z" fill="#1E2832"/>
</svg>
