<svg width="390" height="300" viewBox="0 0 390 300" fill="none" xmlns="http://www.w3.org/2000/svg">
<path d="M354.545 122.2V280H23.6364V59.9999H243.1C242.559 56.6861 242.283 53.3452 242.273 49.9999C242.285 46.6499 242.556 43.3099 243.1 39.9999H23.6364C17.3676 39.9999 11.3556 42.107 6.92293 45.8577C2.49025 49.6085 0 54.6955 0 59.9999V280C0 285.304 2.49025 290.391 6.92293 294.142C11.3556 297.893 17.3676 300 23.6364 300H354.545C360.814 300 366.826 297.893 371.259 294.142C375.692 290.391 378.182 285.304 378.182 280V113.4C370.855 117.3 362.889 120.26 354.545 122.2Z" fill="#1E2832"/>
<path d="M160.964 142.22L89.8424 229.68L41.9551 193.84L54.4823 181.86L86.3678 205.72L161.13 113.8L240.902 213.95L320.722 124.7L335.802 134.36L240.004 241.45L160.964 142.22Z" fill="#004AAD"/>
<path d="M330.91 100C363.545 100 390.001 77.6142 390.001 50C390.001 22.3858 363.545 0 330.91 0C298.275 0 271.819 22.3858 271.819 50C271.819 77.6142 298.275 100 330.91 100Z" fill="#004AAD"/>
</svg>
