<svg class="dots-bg" width="3268" height="1048" viewBox="0 0 3268 1048" fill="none" xmlns="http://www.w3.org/2000/svg">
<rect y="9" width="3263" height="1035" fill="white"/>
<line x1="1031.44" y1="40.1845" x2="1421.18" y2="280.56" stroke="#E3DCEC" stroke-width="5" stroke-linecap="round"/>
<line x1="1425.41" y1="283.066" x2="1728.07" y2="455.59" stroke="#E3DCEC" stroke-width="5" stroke-linecap="round"/>
<line x1="1419.62" y1="281.383" x2="1432.38" y2="15.3773" stroke="#E3DCEC" stroke-width="5" stroke-linecap="round"/>
<line x1="1029.96" y1="38.0555" x2="1164.06" y2="11.0429" stroke="#E3DCEC" stroke-width="5" stroke-linecap="round"/>
<line x1="1726.18" y1="456.873" x2="1669.87" y2="56.824" stroke="#E3DCEC" stroke-width="5" stroke-linecap="round"/>
<line x1="1669.5" y1="43.5" x2="1030.5" y2="43.5" stroke="#E3DCEC" stroke-width="5" stroke-linecap="round"/>
<line x1="1674.67" y1="38.6826" x2="2079.68" y2="67.3298" stroke="#E3DCEC" stroke-width="5" stroke-linecap="round"/>
<line x1="2084.64" y1="72.3502" x2="2112.35" y2="547.359" stroke="#E3DCEC" stroke-width="5" stroke-linecap="round"/>
<line x1="2106.99" y1="551.851" x2="1730.85" y2="462.012" stroke="#E3DCEC" stroke-width="5" stroke-linecap="round"/>
<line x1="1675.53" y1="41.2678" x2="2110.27" y2="547.475" stroke="#E3DCEC" stroke-width="5" stroke-linecap="round"/>
<line x1="1423.61" y1="280.851" x2="2078.85" y2="68.393" stroke="#E3DCEC" stroke-width="5" stroke-linecap="round"/>
<line x1="1725.61" y1="457.989" x2="1486.99" y2="16.3879" stroke="#E3DCEC" stroke-width="5" stroke-linecap="round"/>
<line x1="1852.59" y1="644.757" x2="2078.76" y2="71.4082" stroke="#E3DCEC" stroke-width="5" stroke-linecap="round"/>
<line x1="2077.55" y1="70.7569" x2="1992.76" y2="16.4536" stroke="#E3DCEC" stroke-width="5" stroke-linecap="round"/>
<line x1="2078.53" y1="69.318" x2="2034.32" y2="3.46914" stroke="#E3DCEC" stroke-width="5" stroke-linecap="round"/>
<line x1="2080.17" y1="66.9758" x2="2092.98" y2="14.8315" stroke="#E3DCEC" stroke-width="5" stroke-linecap="round"/>
<line x1="2081.97" y1="66.4646" x2="2134.46" y2="13.0313" stroke="#E3DCEC" stroke-width="5" stroke-linecap="round"/>
<line x1="2082.72" y1="78.5378" x2="2183.54" y2="12.2837" stroke="#E3DCEC" stroke-width="5" stroke-linecap="round"/>
<line x1="2083.07" y1="79.1355" x2="2508.14" y2="10.9277" stroke="#E3DCEC" stroke-width="5" stroke-linecap="round"/>
<line x1="2085.34" y1="80.8275" x2="2278.83" y2="173.665" stroke="#E3DCEC" stroke-width="5" stroke-linecap="round"/>
<line x1="2282.74" y1="170.24" x2="2311.24" y2="456.264" stroke="#E3DCEC" stroke-width="5" stroke-linecap="round"/>
<line x1="2307.77" y1="462.313" x2="2113.31" y2="551.234" stroke="#E3DCEC" stroke-width="5" stroke-linecap="round"/>
<line x1="2305.54" y1="459.719" x2="1672.72" y2="44.4617" stroke="#E3DCEC" stroke-width="5" stroke-linecap="round"/>
<line x1="2305.58" y1="458.101" x2="2081.1" y2="73.4193" stroke="#E3DCEC" stroke-width="5" stroke-linecap="round"/>
<line x1="2312.5" y1="458.513" x2="2681.51" y2="737.498" stroke="#E3DCEC" stroke-width="5" stroke-linecap="round"/>
<line x1="2683.28" y1="744.297" x2="2571.3" y2="997.724" stroke="#E3DCEC" stroke-width="5" stroke-linecap="round"/>
<line x1="2565.1" y1="1001.02" x2="2083.02" y2="913.905" stroke="#E3DCEC" stroke-width="5" stroke-linecap="round"/>
<line x1="2078.71" y1="908.308" x2="2107.31" y2="552.292" stroke="#E3DCEC" stroke-width="5" stroke-linecap="round"/>
<line x1="2113.54" y1="549.965" x2="2567.96" y2="995.465" stroke="#E3DCEC" stroke-width="5" stroke-linecap="round"/>
<line x1="2570.5" y1="1001.5" x2="2570.5" y2="1041.5" stroke="#E3DCEC" stroke-width="5" stroke-linecap="round"/>
<line x1="2570.95" y1="997.044" x2="2789.04" y2="1041.05" stroke="#E3DCEC" stroke-width="5" stroke-linecap="round"/>
<line x1="2567.01" y1="1002.39" x2="2489.39" y2="1044.99" stroke="#E3DCEC" stroke-width="5" stroke-linecap="round"/>
<line x1="2084.53" y1="911.096" x2="2207.1" y2="1040.47" stroke="#E3DCEC" stroke-width="5" stroke-linecap="round"/>
<line x1="2077.47" y1="910.741" x2="1853.74" y2="651.526" stroke="#E3DCEC" stroke-width="5" stroke-linecap="round"/>
<line x1="1855.44" y1="644.771" x2="2106.77" y2="548.559" stroke="#E3DCEC" stroke-width="5" stroke-linecap="round"/>
<line x1="2113.16" y1="548.421" x2="2680.42" y2="737.837" stroke="#E3DCEC" stroke-width="5" stroke-linecap="round"/>
<line x1="2680.27" y1="744.086" x2="2084.09" y2="912.725" stroke="#E3DCEC" stroke-width="5" stroke-linecap="round"/>
<line x1="2309.48" y1="455.498" x2="2536.5" y2="283.517" stroke="#E3DCEC" stroke-width="5" stroke-linecap="round"/>
<line x1="2536.74" y1="285.36" x2="2281.36" y2="180.263" stroke="#E3DCEC" stroke-width="5" stroke-linecap="round"/>
<line x1="2281.37" y1="173.741" x2="2678.74" y2="11.6296" stroke="#E3DCEC" stroke-width="5" stroke-linecap="round"/>
<line x1="2539.76" y1="280.473" x2="2772.47" y2="13.2435" stroke="#E3DCEC" stroke-width="5" stroke-linecap="round"/>
<line x1="2778.15" y1="15.8054" x2="2682.81" y2="738.848" stroke="#E3DCEC" stroke-width="5" stroke-linecap="round"/>
<line x1="2676.88" y1="739.342" x2="2538.34" y2="287.123" stroke="#E3DCEC" stroke-width="5" stroke-linecap="round"/>
<line x1="2543.11" y1="282.319" x2="2987.32" y2="414.889" stroke="#E3DCEC" stroke-width="5" stroke-linecap="round"/>
<line x1="2985.66" y1="416.852" x2="2789.85" y2="16.344" stroke="#E3DCEC" stroke-width="5" stroke-linecap="round"/>
<line x1="2988.95" y1="420.947" x2="2862.95" y2="1042.05" stroke="#E3DCEC" stroke-width="5" stroke-linecap="round"/>
<line x1="2989.08" y1="421.535" x2="2683.53" y2="740.922" stroke="#E3DCEC" stroke-width="5" stroke-linecap="round"/>
<line x1="2685.42" y1="741.889" x2="2860.89" y2="1040.58" stroke="#E3DCEC" stroke-width="5" stroke-linecap="round"/>
<line x1="2685.41" y1="740.049" x2="3123.05" y2="986.595" stroke="#E3DCEC" stroke-width="5" stroke-linecap="round"/>
<circle cx="2206.5" cy="101.5" r="19.5" fill="#1E2832"/>
<circle cx="3101.5" cy="390.5" r="19.5" fill="#1E2832"/>
<circle cx="2810.5" cy="760.5" r="19.5" fill="#1E2832"/>
<circle cx="2681.5" cy="741.5" r="19.5" fill="#E3DCEC"/>
<circle cx="2279.5" cy="177.5" r="19.5" fill="#E3DCEC"/>
<circle cx="1853.5" cy="648.5" r="19.5" fill="#E3DCEC"/>
<circle cx="2567.5" cy="999.5" r="19.5" fill="#E3DCEC"/>
<circle cx="1728.5" cy="82.5" r="28.5" fill="#1E2832"/>
<circle cx="2006.5" cy="82.5" r="28.5" fill="#1E2832"/>
<circle cx="2429.5" cy="54.5" r="28.5" fill="#1E2832"/>
<circle cx="2457.5" cy="255.5" r="28.5" fill="#1E2832"/>
<circle cx="2539.5" cy="579.5" r="28.5" fill="#1E2832"/>
<circle cx="2633.5" cy="139.5" r="28.5" fill="#1E2832"/>
<circle cx="2959.5" cy="168.5" r="28.5" fill="#1E2832"/>
<circle cx="2987.5" cy="41.5" r="28.5" fill="#1E2832"/>
<circle cx="2958.5" cy="550.5" r="28.5" fill="#1E2832"/>
<circle cx="3123.5" cy="990.5" r="28.5" fill="#1E2832"/>
<circle cx="2081.5" cy="911.5" r="28.5" fill="#E3DCEC"/>
<circle cx="2109.5" cy="550.5" r="28.5" fill="#E3DCEC"/>
<circle cx="2308.5" cy="459.5" r="28.5" fill="#E3DCEC"/>
<circle cx="2988.5" cy="418.5" r="28.5" fill="#E3DCEC"/>
<circle cx="2539.5" cy="284.5" r="28.5" fill="#E3DCEC"/>
<circle cx="2081.5" cy="82.5" r="28.5" fill="#E3DCEC"/>
<circle cx="1728.5" cy="459.5" r="28.5" fill="#E3DCEC"/>
<circle cx="1421.5" cy="284.5" r="28.5" fill="#E3DCEC"/>
<circle cx="1027.5" cy="41.5" r="28.5" fill="#E3DCEC"/>
<circle cx="1671.5" cy="54.5" r="28.5" fill="#E3DCEC"/>
<line x1="1724.76" y1="81.7866" x2="1662.79" y2="13.2373" stroke="#1E2832" stroke-width="6" stroke-linecap="round"/>
<line x1="1732" y1="80" x2="2004" y2="80" stroke="#1E2832" stroke-width="6" stroke-linecap="round"/>
<line x1="2010.26" y1="80.281" x2="2204.28" y2="97.7432" stroke="#1E2832" stroke-width="6" stroke-linecap="round"/>
<line x1="2209.31" y1="97.4437" x2="2425.44" y2="51.6864" stroke="#1E2832" stroke-width="6" stroke-linecap="round"/>
<line x1="2432.4" y1="56.5409" x2="2460.54" y2="251.602" stroke="#1E2832" stroke-width="6" stroke-linecap="round"/>
<line x1="2445" y1="250.876" x2="2629.88" y2="138.003" stroke="#1E2832" stroke-width="6" stroke-linecap="round"/>
<line x1="2630.08" y1="140.622" x2="2430.62" y2="57.9203" stroke="#1E2832" stroke-width="6" stroke-linecap="round"/>
<line x1="2430.34" y1="49.9751" x2="2506.98" y2="11.6584" stroke="#1E2832" stroke-width="6" stroke-linecap="round"/>
<line x1="2515.24" y1="13.0511" x2="2634.05" y2="134.758" stroke="#1E2832" stroke-width="6" stroke-linecap="round"/>
<line x1="2632.26" y1="135.129" x2="2678.13" y2="14.7355" stroke="#1E2832" stroke-width="6" stroke-linecap="round"/>
<line x1="2638.21" y1="140.486" x2="2960.49" y2="546.785" stroke="#1E2832" stroke-width="6" stroke-linecap="round"/>
<line x1="2956.21" y1="549.101" x2="2779.1" y2="16.7937" stroke="#1E2832" stroke-width="6" stroke-linecap="round"/>
<line x1="2958.75" y1="546.765" x2="3097.76" y2="390.251" stroke="#1E2832" stroke-width="6" stroke-linecap="round"/>
<line x1="3097.85" y1="389.103" x2="2958.1" y2="172.147" stroke="#1E2832" stroke-width="6" stroke-linecap="round"/>
<line x1="2956.72" y1="164.424" x2="2983.42" y2="43.2837" stroke="#1E2832" stroke-width="6" stroke-linecap="round"/>
<line x1="2982.82" y1="41.7373" x2="2947.74" y2="17.1781" stroke="#1E2832" stroke-width="6" stroke-linecap="round"/>
<line x1="2991.23" y1="41.3889" x2="3120.39" y2="10.7728" stroke="#1E2832" stroke-width="6" stroke-linecap="round"/>
<line x1="2990.91" y1="43.3604" x2="3261.36" y2="154.087" stroke="#1E2832" stroke-width="6" stroke-linecap="round"/>
<line x1="2963.38" y1="165.429" x2="3260.43" y2="205.625" stroke="#1E2832" stroke-width="6" stroke-linecap="round"/>
<line x1="2964.1" y1="166.923" x2="3261.92" y2="340.896" stroke="#1E2832" stroke-width="6" stroke-linecap="round"/>
<line x1="3096.27" y1="385.95" x2="3258.95" y2="300.735" stroke="#1E2832" stroke-width="6" stroke-linecap="round"/>
<line x1="3100.11" y1="393.8" x2="2543.8" y2="580.887" stroke="#1E2832" stroke-width="6" stroke-linecap="round"/>
<line x1="2447.73" y1="258.021" x2="2542.02" y2="575.27" stroke="#1E2832" stroke-width="6" stroke-linecap="round"/>
<line x1="2424.77" y1="44.7178" x2="2400.72" y2="17.2332" stroke="#1E2832" stroke-width="6" stroke-linecap="round"/>
<line x1="2544.16" y1="578.182" x2="2810.18" y2="756.837" stroke="#1E2832" stroke-width="6" stroke-linecap="round"/>
<line x1="2815.2" y1="760.37" x2="3120.37" y2="985.804" stroke="#1E2832" stroke-width="6" stroke-linecap="round"/>
<line x1="3124.79" y1="988.095" x2="3261.09" y2="1033.21" stroke="#1E2832" stroke-width="6" stroke-linecap="round"/>
<line x1="3122.16" y1="985.92" x2="3258.92" y2="909.837" stroke="#1E2832" stroke-width="6" stroke-linecap="round"/>
<line x1="2537.69" y1="575.439" x2="2630.44" y2="141.307" stroke="#1E2832" stroke-width="6" stroke-linecap="round"/>
<line x1="2532.09" y1="574.758" x2="2955.76" y2="167.914" stroke="#1E2832" stroke-width="6" stroke-linecap="round"/>
<line x1="2962.44" y1="170.312" x2="2431.31" y2="57.5576" stroke="#1E2832" stroke-width="6" stroke-linecap="round"/>
<line x1="2808.96" y1="758.555" x2="2956.96" y2="549.555" stroke="#1E2832" stroke-width="5"/>
<line x1="2961.34" y1="550.12" x2="3126.34" y2="989.12" stroke="#1E2832" stroke-width="5"/>
<line x1="3121.5" y1="990.092" x2="3099.5" y2="390.092" stroke="#1E2832" stroke-width="5"/>
<line x1="3097.09" y1="388.625" x2="3265.09" y2="643.625" stroke="#1E2832" stroke-width="5"/>
<line x1="3121.6" y1="989.302" x2="3260.6" y2="511.302" stroke="#1E2832" stroke-width="5"/>
<line x1="1730.43" y1="78.0041" x2="1879" y2="7.57416" stroke="#1E2832" stroke-width="6" stroke-linecap="round"/>
</svg>
