<svg width="458" height="505" viewBox="0 0 458 505" fill="none" xmlns="http://www.w3.org/2000/svg">
<path d="M119.468 135.435C143.006 126.731 166.001 116.004 190.193 109.933C238.097 97.8999 317.097 130.539 336.651 191.945C345.6 220.058 353.526 249.39 355.595 278.635C358.752 323.155 356.423 368.089 356.423 414.415C343.837 408.888 339.46 401.816 338.741 390.327C336.564 355.708 333.21 321.153 330.031 283.705C311.784 289.863 294.778 294.476 278.751 301.374C266.775 306.531 265.556 315.931 276.204 323.525C288.702 332.425 303.183 338.561 317.576 346.329V505C271.849 485.221 227.863 465.724 203.105 419.92C190.693 396.985 191.521 372.375 195.375 347.548C197.008 337.103 199.839 326.637 199.73 316.192C199.45 308.771 196.989 301.596 192.653 295.564C189.409 291.212 181.57 286.403 177.106 287.469C172.642 288.536 168.243 296.021 166.327 301.548C162.538 312.428 161.275 324.2 157.617 335.166C140.415 386.476 104.878 405.95 52.9015 391.415C36.6574 386.889 21.4585 378.577 2.81913 370.787C14.926 363.019 24.1586 357.426 33.0428 351.334C80.2073 318.999 87.0446 275.175 50.4627 231.417C38.2688 216.903 23.2005 204.565 8.32819 192.598C1.3602 187.005 -1.36166 181.935 0.641631 173.58C24.0061 75.988 95.2538 5.13883 206.132 0.351724C268.604 -2.36822 325.654 10.2741 373.407 52.7488C417.915 92.3512 443.413 143.138 457.916 200.061C458.096 202.437 457.987 204.827 457.589 207.177C412.558 186.113 368.312 165.507 324.174 144.661C320.679 142.663 317.514 140.138 314.789 137.176C263.429 88.6086 206.538 81.0072 144.117 114.372C134.427 119.594 125.434 126.144 116.136 132.084L109.821 135.696L110.605 137.633L119.468 135.435ZM284.587 260.531L321.604 251.697C302.268 123.729 225.054 97.2037 134.34 153.017C170.29 142.137 206.197 136.567 237.705 162.352C267.668 186.723 278.054 221.625 284.587 260.531ZM281.43 358.776L228.821 313.516C209.224 380.688 230.89 439.395 281.43 441.005V358.776Z" fill="white"/>
</svg>
