<svg width="710" height="788" viewBox="0 0 710 788" fill="none" xmlns="http://www.w3.org/2000/svg">
<path d="M185.806 213.758L185.942 213.724L186.073 213.676C197.291 209.5 208.372 205.053 219.416 200.621C244.56 190.529 269.512 180.515 295.452 173.963L295.453 173.963C331.841 164.763 380.393 172.609 423.703 194.777C466.979 216.929 504.598 253.164 519.499 300.264C533.357 344.085 545.571 389.626 548.756 434.956L548.756 434.957C552.174 483.461 551.435 532.22 550.683 581.94C550.379 602.027 550.072 622.27 550.036 642.717C542.496 638.946 537.395 634.773 533.974 629.909C530.053 624.334 528.158 617.594 527.618 608.91L527.618 608.909C525.139 569.237 521.677 529.609 518.063 488.246C516.753 473.248 515.422 458.021 514.112 442.482L513.843 439.297L510.816 440.325C502.231 443.241 493.782 445.947 485.476 448.607C466.604 454.65 448.467 460.458 431.132 467.969L431.131 467.969C421.475 472.154 415.397 478.394 414.516 485.824C413.632 493.279 418.12 500.685 426.718 506.858L426.72 506.859C440.284 516.581 455.438 524.267 470.806 532.062C477.137 535.273 483.505 538.503 489.812 541.901V784.184C420.107 753.794 354.349 723.499 317.06 654.059L317.059 654.058C298.216 619.011 299.392 581.294 305.345 542.693C306.076 537.987 306.944 533.375 307.821 528.718C308.469 525.279 309.121 521.815 309.727 518.269C311.128 510.058 312.212 501.73 312.125 493.359L312.125 493.325L312.123 493.291C311.672 481.223 307.695 469.555 300.689 459.744L300.676 459.726L300.663 459.709C297.89 455.964 293.293 452.173 288.526 449.526C286.126 448.193 283.606 447.106 281.166 446.465C278.752 445.831 276.246 445.588 273.968 446.135C269.554 447.197 265.663 451.224 262.668 455.507C259.58 459.924 257.033 465.211 255.481 469.717C252.488 478.366 250.503 487.343 248.574 496.179L248.421 496.88C246.535 505.522 244.681 514.019 241.968 522.206C228.761 561.855 208.642 588.838 182.197 603.21C155.762 617.576 122.562 619.58 82.6863 608.356L82.684 608.355C70.2718 604.874 58.2188 599.926 45.6007 594.295C41.3109 592.381 36.9437 590.382 32.4759 588.337C25.1822 584.999 17.6205 581.538 9.68982 578.122C14.4063 575.093 18.8497 572.268 23.0853 569.575C33.9359 562.675 43.4228 556.642 52.6437 550.277C89.5703 524.795 111.051 494.543 115.884 461.709C120.718 428.865 108.808 394.008 80.1514 359.505L80.1475 359.5C61.0659 336.639 37.5208 317.245 14.484 298.586L14.4815 298.584C9.21324 294.328 5.81831 290.477 4.03457 286.322C2.28019 282.235 1.96497 277.569 3.42663 271.432L3.42682 271.432C39.4236 120.089 149.034 10.4614 319.658 3.04647L319.659 3.04643C416.08 -1.17918 503.802 18.4617 577.195 84.1716C645.669 145.499 684.987 224.178 707.392 312.576C707.556 314.902 707.533 317.236 707.324 319.555C691.747 312.221 676.23 304.923 660.762 297.648C608 272.831 555.803 248.281 503.703 223.514C498.543 220.531 493.866 216.771 489.837 212.362L489.778 212.298L489.715 212.238C449.615 174.069 407.197 151.853 362.466 145.837C317.735 139.821 270.965 150.043 222.228 176.264L222.22 176.268C211.78 181.932 201.792 188.628 191.925 195.244C187.514 198.201 183.127 201.143 178.735 203.968L168.999 209.573L167.117 210.657L167.927 212.673L169.143 215.695L169.955 217.715L172.068 217.187L185.806 213.758ZM438.706 406.943L439.147 409.589L441.756 408.963L499.141 395.177L501.37 394.642L501.029 392.375C485.989 292.187 448.324 230.905 395.976 205.96C343.62 181.012 277.585 192.891 206.94 236.642L208.985 241.159C264.621 224.211 319.122 215.902 366.906 255.263L366.912 255.268C412.612 292.683 428.597 346.34 438.706 406.943ZM438.777 559.832V558.69L437.914 557.942L356.36 487.319L353.409 484.763L352.322 488.513C337.022 541.297 337.753 590.994 352.403 627.96C367.094 665.031 395.855 689.347 436.197 690.641L438.777 690.724V688.143V559.832Z" fill="#FBFCFD" stroke="#1217A5" stroke-width="5"/>
</svg>
